<svg xmlns="http://www.w3.org/2000/svg" viewBox="0 0 1600 900" role="img" aria-labelledby="title desc">
<title>SBM Smart Estate Concept</title><desc>Illustration of a secure smart estate with connected homes and gate access.</desc>
<defs>
  <linearGradient id="sky2" x1="0" y1="0" x2="0" y2="1"><stop offset="0%" stop-color="#0b1830"/><stop offset="100%" stop-color="#325b8f"/></linearGradient>
  <linearGradient id="road" x1="0" y1="0" x2="0" y2="1"><stop offset="0%" stop-color="#4b5667"/><stop offset="100%" stop-color="#222c39"/></linearGradient>
  <linearGradient id="lawn" x1="0" y1="0" x2="1" y2="0"><stop offset="0%" stop-color="#33583f"/><stop offset="100%" stop-color="#55885a"/></linearGradient>
  <filter id="shadow2" x="-20%" y="-20%" width="140%" height="140%"><feDropShadow dx="0" dy="12" stdDeviation="16" flood-color="#020912" flood-opacity="0.3"/></filter>
</defs>
<rect width="1600" height="900" fill="url(#sky2)"/>
<rect y="600" width="1600" height="300" fill="url(#lawn)"/>
<path d="M700 900L930 900L1160 600L470 600Z" fill="url(#road)"/>
<g filter="url(#shadow2)">
  <rect x="130" y="290" width="290" height="230" rx="14" fill="#f7f1e6"/>
  <rect x="470" y="250" width="320" height="270" rx="16" fill="#fbf7ef"/>
  <rect x="860" y="270" width="300" height="250" rx="16" fill="#f6f1e8"/>
  <rect x="1210" y="305" width="250" height="215" rx="14" fill="#f3ede2"/>
  <rect x="520" y="340" width="130" height="120" fill="#9ccfff" opacity="0.8"/>
  <rect x="910" y="345" width="125" height="115" fill="#9ccfff" opacity="0.8"/>
  <rect x="1270" y="360" width="105" height="100" fill="#9ccfff" opacity="0.8"/>
  <path d="M120 555h1350" stroke="#e0d1bc" stroke-width="6" opacity="0.8"/>
  <rect x="660" y="545" width="90" height="120" rx="8" fill="#10274a"/>
  <rect x="755" y="545" width="90" height="120" rx="8" fill="#15335f"/>
  <circle cx="705" cy="585" r="8" fill="#00d4ff"/>
  <circle cx="800" cy="585" r="8" fill="#4de4c2"/>
  <rect x="620" y="530" width="260" height="18" rx="8" fill="#7b4d32"/>
</g>
<text x="110" y="130" font-size="54" font-family="Poppins, Arial, sans-serif" fill="#ffffff" font-weight="700">SBM Secure Estate Vision</text>
<text x="112" y="185" font-size="28" font-family="Poppins, Arial, sans-serif" fill="#dce8ff">Connected communities with smart access, monitoring, energy planning, and safer living</text>
</svg>
