<svg xmlns="http://www.w3.org/2000/svg" viewBox="0 0 1600 900" role="img" aria-labelledby="title desc">
<title>SBM Smart Villa Concept</title><desc>Mediterranean style smart villa illustration with warm lighting and pool.</desc>
<defs>
  <linearGradient id="sky" x1="0" y1="0" x2="0" y2="1"><stop offset="0%" stop-color="#10274a"/><stop offset="100%" stop-color="#254a7e"/></linearGradient>
  <linearGradient id="ground" x1="0" y1="0" x2="1" y2="1"><stop offset="0%" stop-color="#73533a"/><stop offset="100%" stop-color="#b18458"/></linearGradient>
  <linearGradient id="glass" x1="0" y1="0" x2="0" y2="1"><stop offset="0%" stop-color="#9ad0ff" stop-opacity="0.95"/><stop offset="100%" stop-color="#5a91d8" stop-opacity="0.75"/></linearGradient>
  <linearGradient id="pool" x1="0" y1="0" x2="1" y2="1"><stop offset="0%" stop-color="#29c8ff"/><stop offset="100%" stop-color="#0a6fd1"/></linearGradient>
  <filter id="shadow" x="-20%" y="-20%" width="140%" height="140%"><feDropShadow dx="0" dy="14" stdDeviation="18" flood-color="#03101d" flood-opacity="0.35"/></filter>
</defs>
<rect width="1600" height="900" fill="url(#sky)"/>
<circle cx="1260" cy="160" r="76" fill="#f1d5af" opacity="0.85"/>
<rect y="620" width="1600" height="280" fill="url(#ground)"/>
<g filter="url(#shadow)">
  <rect x="320" y="300" width="960" height="320" rx="14" fill="#f7f3ea"/>
  <rect x="380" y="210" width="390" height="180" rx="20" fill="#faf7ef"/>
  <rect x="790" y="220" width="420" height="170" rx="20" fill="#f4efe6"/>
  <rect x="615" y="320" width="110" height="300" fill="#dcc6a9"/>
  <rect x="1010" y="330" width="110" height="290" fill="#dcc6a9"/>
  <rect x="450" y="385" width="210" height="180" rx="5" fill="url(#glass)"/>
  <rect x="760" y="390" width="210" height="170" rx="5" fill="url(#glass)"/>
  <rect x="1045" y="390" width="155" height="170" rx="5" fill="url(#glass)"/>
  <path d="M320 540h960" stroke="#e9ddca" stroke-width="10"/>
  <g fill="#f8f4ec">
    <path d="M450 620v-90c0-60 48-108 108-108s108 48 108 108v90h-38v-90c0-39-31-70-70-70s-70 31-70 70v90z"/>
    <path d="M756 620v-90c0-60 48-108 108-108s108 48 108 108v90h-38v-90c0-39-31-70-70-70s-70 31-70 70v90z"/>
  </g>
  <rect x="515" y="305" width="115" height="40" rx="6" fill="#c49d6f"/>
  <rect x="865" y="315" width="130" height="40" rx="6" fill="#c49d6f"/>
  <rect x="430" y="670" width="540" height="110" rx="18" fill="url(#pool)" opacity="0.95"/>
  <rect x="420" y="655" width="560" height="140" rx="24" fill="none" stroke="#dfeeff" stroke-opacity="0.45" stroke-width="10"/>
  <rect x="1040" y="640" width="150" height="18" rx="9" fill="#7b4d32"/>
  <rect x="1070" y="575" width="90" height="70" rx="6" fill="#4a2a1a"/>
</g>
<text x="110" y="130" font-size="54" font-family="Poppins, Arial, sans-serif" fill="#ffffff" font-weight="700">SBM Smart Villa Vision</text>
<text x="112" y="185" font-size="28" font-family="Poppins, Arial, sans-serif" fill="#dce8ff">Luxury Mediterranean exterior with integrated smart living features</text>
</svg>
